<svg width="1440" height="900" viewBox="0 0 1440 900" xmlns="http://www.w3.org/2000/svg" font-family="'Segoe UI', system-ui, sans-serif">
  <defs>
    <linearGradient id="sbGrad" x1="0%" y1="0%" x2="0%" y2="100%">
      <stop offset="0%" stop-color="#1F4E78"/>
      <stop offset="100%" stop-color="#163A52"/>
    </linearGradient>
    <filter id="sh" x="-5%" y="-5%" width="115%" height="125%">
      <feDropShadow dx="0" dy="2" stdDeviation="4" flood-color="#1F4E78" flood-opacity="0.10"/>
    </filter>
    <filter id="shCard" x="-8%" y="-8%" width="120%" height="140%">
      <feDropShadow dx="0" dy="6" stdDeviation="12" flood-color="#1F4E78" flood-opacity="0.14"/>
    </filter>
  </defs>

  <rect width="1440" height="900" fill="#F0F4F8"/>

  <!-- Sidebar -->
  <rect width="260" height="900" fill="url(#sbGrad)"/>
  <rect x="20" y="20" width="220" height="64" rx="8" fill="rgba(255,255,255,0.08)"/>
  <circle cx="52" cy="52" r="18" fill="rgba(112,173,71,0.9)"/>
  <text x="52" y="58" font-size="16" fill="white" text-anchor="middle" font-weight="700">S</text>
  <text x="80" y="48" font-size="16" fill="white" font-weight="700">SIG</text>
  <text x="80" y="66" font-size="11" fill="rgba(255,255,255,0.6)">Plataforma Integral</text>

  <text x="20" y="112" font-size="10" fill="rgba(255,255,255,0.5)" font-weight="700" letter-spacing="1.5">PRINCIPAL</text>
  <line x1="20" y1="118" x2="240" y2="118" stroke="rgba(255,255,255,0.1)" stroke-width="1"/>

  <text x="52" y="151" font-size="13" fill="rgba(255,255,255,0.7)">📊 Dashboard</text>
  <text x="52" y="185" font-size="13" fill="rgba(255,255,255,0.7)">📁 Clientes</text>
  <text x="52" y="218" font-size="13" fill="rgba(255,255,255,0.7)">🏗️ Proyectos</text>
  <text x="52" y="251" font-size="13" fill="rgba(255,255,255,0.7)">⚡ Acciones</text>
  <text x="52" y="284" font-size="13" fill="rgba(255,255,255,0.7)">🧮 Conceptos</text>
  <text x="52" y="317" font-size="13" fill="rgba(255,255,255,0.7)">📅 Periodos</text>
  <rect x="8" y="332" width="244" height="40" rx="6" fill="rgba(255,255,255,0.18)"/>
  <rect x="8" y="332" width="3" height="40" rx="2" fill="#70AD47"/>
  <text x="52" y="357" font-size="13" fill="white" font-weight="600">✅ Aprobaciones</text>
  <text x="52" y="395" font-size="13" fill="rgba(255,255,255,0.7)">💼 Contabilidad</text>
  <text x="52" y="428" font-size="13" fill="rgba(255,255,255,0.7)">📈 Informes</text>

  <!-- Top bar -->
  <rect x="260" y="0" width="1180" height="60" fill="white" filter="url(#sh)"/>
  <text x="290" y="38" font-size="20" fill="#1F4E78" font-weight="700">✅  Aprobaciones</text>

  <!-- Filters bar -->
  <rect x="280" y="72" width="1100" height="56" rx="10" fill="white" filter="url(#sh)"/>
  <text x="302" y="95" font-size="11" fill="#888" font-weight="700">PERÍODO</text>
  <rect x="302" y="100" width="150" height="18" rx="4" fill="#F0F4F8" stroke="#D0D0D0" stroke-width="1"/>
  <text x="316" y="114" font-size="12" fill="#1F4E78">Mayo 2026 ▾</text>

  <text x="474" y="95" font-size="11" fill="#888" font-weight="700">CLIENTE</text>
  <rect x="474" y="100" width="150" height="18" rx="4" fill="#F0F4F8" stroke="#D0D0D0" stroke-width="1"/>
  <text x="488" y="114" font-size="12" fill="#1F4E78">Todos ▾</text>

  <text x="648" y="95" font-size="11" fill="#888" font-weight="700">PROYECTO</text>
  <rect x="648" y="100" width="150" height="18" rx="4" fill="#F0F4F8" stroke="#D0D0D0" stroke-width="1"/>
  <text x="662" y="114" font-size="12" fill="#1F4E78">Todos ▾</text>

  <text x="822" y="95" font-size="11" fill="#888" font-weight="700">ESTADO</text>
  <rect x="822" y="100" width="130" height="18" rx="4" fill="#F0F4F8" stroke="#D0D0D0" stroke-width="1"/>
  <text x="836" y="114" font-size="12" fill="#1F4E78">Pendiente ▾</text>

  <!-- ─── PENDING APPROVALS SECTION ─── -->
  <rect x="280" y="148" width="1100" height="300" rx="12" fill="white" filter="url(#sh)"/>

  <!-- Section header -->
  <rect x="280" y="148" width="1100" height="44" rx="12" fill="#FFF8E1"/>
  <rect x="280" y="170" width="1100" height="22" fill="#FFF8E1"/>
  <text x="302" y="175" font-size="14" fill="#E65100" font-weight="700">⏳  Pendientes de Aprobación</text>

  <rect x="900" y="158" width="180" height="26" rx="6" fill="#1F4E78"/>
  <text x="990" y="176" font-size="12" fill="white" text-anchor="middle" font-weight="600">☑  Aprobar Seleccionados</text>

  <rect x="1096" y="158" width="80" height="26" rx="6" fill="#FFEBEE" stroke="#D32F2F" stroke-width="1"/>
  <text x="1136" y="176" font-size="12" fill="#D32F2F" text-anchor="middle">✗ Rechazar</text>

  <!-- Table header -->
  <rect x="280" y="192" width="1100" height="34" fill="#F8FAFC"/>
  <rect x="302" y="200" width="18" height="18" rx="3" fill="white" stroke="#D0D0D0" stroke-width="1.5"/>
  <text x="342" y="214" font-size="11" fill="#666" font-weight="700" letter-spacing="0.5">PERÍODO</text>
  <text x="470" y="214" font-size="11" fill="#666" font-weight="700" letter-spacing="0.5">CLIENTE</text>
  <text x="640" y="214" font-size="11" fill="#666" font-weight="700" letter-spacing="0.5">PROYECTO</text>
  <text x="830" y="214" font-size="11" fill="#666" font-weight="700" letter-spacing="0.5">COSTE</text>
  <text x="960" y="214" font-size="11" fill="#666" font-weight="700" letter-spacing="0.5">FACTURACIÓN</text>
  <text x="1100" y="214" font-size="11" fill="#666" font-weight="700" letter-spacing="0.5">MARGEN</text>
  <text x="1230" y="214" font-size="11" fill="#666" font-weight="700" letter-spacing="0.5">ACCIONES</text>

  <!-- Row 1 -->
  <rect x="280" y="226" width="1100" height="48" fill="white"/>
  <rect x="302" y="235" width="18" height="18" rx="3" fill="#1F4E78"/>
  <text x="311" y="248" font-size="12" fill="white" text-anchor="middle" font-weight="700">✓</text>
  <text x="342" y="252" font-size="13" fill="#444" font-weight="600">Mayo 2026</text>
  <text x="470" y="252" font-size="13" fill="#444">American Express</text>
  <text x="640" y="252" font-size="13" fill="#1F4E78" font-weight="600">Amex Shop Small</text>
  <text x="830" y="252" font-size="13" fill="#444">€ 15.000</text>
  <text x="960" y="252" font-size="13" fill="#444">€ 20.500</text>
  <rect x="1100" y="240" width="58" height="20" rx="10" fill="#E8F5E9"/>
  <text x="1129" y="255" font-size="11" fill="#2E7D32" text-anchor="middle" font-weight="600">32%</text>
  <text x="1232" y="252" font-size="11" fill="#1F4E78">Ver ·</text>
  <rect x="1258" y="240" width="70" height="22" rx="4" fill="#70AD47"/>
  <text x="1293" y="255" font-size="11" fill="white" text-anchor="middle" font-weight="600">Aprobar</text>
  <line x1="302" y1="274" x2="1360" y2="274" stroke="#F0F4F8" stroke-width="1"/>

  <!-- Row 2 -->
  <rect x="280" y="274" width="1100" height="48" fill="#FAFAFA"/>
  <rect x="302" y="283" width="18" height="18" rx="3" fill="white" stroke="#D0D0D0" stroke-width="1.5"/>
  <text x="342" y="300" font-size="13" fill="#444" font-weight="600">Mayo 2026</text>
  <text x="470" y="300" font-size="13" fill="#444">Granini</text>
  <text x="640" y="300" font-size="13" fill="#1F4E78" font-weight="600">Granini GPVs</text>
  <text x="830" y="300" font-size="13" fill="#444">€ 8.500</text>
  <text x="960" y="300" font-size="13" fill="#444">€ 12.000</text>
  <rect x="1100" y="288" width="58" height="20" rx="10" fill="#E3F2FD"/>
  <text x="1129" y="303" font-size="11" fill="#1565C0" text-anchor="middle" font-weight="600">25%</text>
  <text x="1232" y="300" font-size="11" fill="#1F4E78">Ver ·</text>
  <rect x="1258" y="288" width="70" height="22" rx="4" fill="white" stroke="#1F4E78" stroke-width="1"/>
  <text x="1293" y="303" font-size="11" fill="#1F4E78" text-anchor="middle" font-weight="600">Aprobar</text>
  <line x1="302" y1="322" x2="1360" y2="322" stroke="#F0F4F8" stroke-width="1"/>

  <!-- Row 3 -->
  <rect x="280" y="322" width="1100" height="48" fill="white"/>
  <rect x="302" y="331" width="18" height="18" rx="3" fill="white" stroke="#D0D0D0" stroke-width="1.5"/>
  <text x="342" y="348" font-size="13" fill="#444" font-weight="600">Mayo 2026</text>
  <text x="470" y="348" font-size="13" fill="#444">American Express</text>
  <text x="640" y="348" font-size="13" fill="#1F4E78" font-weight="600">Amex New</text>
  <text x="830" y="348" font-size="13" fill="#444">€ 5.200</text>
  <text x="960" y="348" font-size="13" fill="#444">€ 7.500</text>
  <rect x="1100" y="336" width="58" height="20" rx="10" fill="#FFF3E0"/>
  <text x="1129" y="351" font-size="11" fill="#E65100" text-anchor="middle" font-weight="600">28%</text>
  <text x="1232" y="348" font-size="11" fill="#1F4E78">Ver ·</text>
  <rect x="1258" y="336" width="70" height="22" rx="4" fill="white" stroke="#1F4E78" stroke-width="1"/>
  <text x="1293" y="351" font-size="11" fill="#1F4E78" text-anchor="middle" font-weight="600">Aprobar</text>
  <line x1="302" y1="370" x2="1360" y2="370" stroke="#F0F4F8" stroke-width="1"/>

  <!-- Totals -->
  <rect x="280" y="370" width="1100" height="36" fill="#E8F4F8"/>
  <text x="342" y="393" font-size="12" fill="#1F4E78" font-weight="700">TOTAL PENDIENTE</text>
  <text x="830" y="393" font-size="13" fill="#1F4E78" font-weight="700">€ 28.700</text>
  <text x="960" y="393" font-size="13" fill="#1F4E78" font-weight="700">€ 40.000</text>

  <!-- ─── APPROVAL DETAIL PANEL ─── -->
  <rect x="280" y="468" width="680" height="340" rx="12" fill="white" filter="url(#sh)"/>
  <rect x="280" y="468" width="680" height="44" rx="12" fill="#1F4E78"/>
  <rect x="280" y="490" width="680" height="22" fill="#1F4E78"/>
  <text x="302" y="495" font-size="14" fill="white" font-weight="700">📋  Detalle — Amex Shop Small · Mayo 2026</text>

  <text x="302" y="535" font-size="12" fill="#888" font-weight="700">COSTE TOTAL</text>
  <text x="302" y="555" font-size="24" fill="#1F4E78" font-weight="700">€ 15.000</text>

  <text x="480" y="535" font-size="12" fill="#888" font-weight="700">FACTURACIÓN</text>
  <text x="480" y="555" font-size="24" fill="#70AD47" font-weight="700">€ 20.500</text>

  <text x="660" y="535" font-size="12" fill="#888" font-weight="700">MARGEN</text>
  <text x="660" y="555" font-size="24" fill="#1F4E78" font-weight="700">32%</text>

  <line x1="302" y1="568" x2="940" y2="568" stroke="#E8F4F8" stroke-width="2"/>
  <text x="302" y="590" font-size="12" fill="#1F4E78" font-weight="700">DESGLOSE DE CONCEPTOS</text>

  <rect x="294" y="598" width="652" height="28" fill="#F8FAFC"/>
  <text x="302" y="617" font-size="11" fill="#666" font-weight="700">CONCEPTO</text>
  <text x="560" y="617" font-size="11" fill="#666" font-weight="700">EMPLEADO</text>
  <text x="740" y="617" font-size="11" fill="#666" font-weight="700">IMPORTE PAGO</text>
  <text x="870" y="617" font-size="11" fill="#666" font-weight="700">FACTURA</text>

  <text x="302" y="645" font-size="12" fill="#444">Nota de gastos pago</text>
  <text x="560" y="645" font-size="12" fill="#888">—</text>
  <text x="740" y="645" font-size="12" fill="#444">€ 5.000</text>
  <text x="870" y="645" font-size="12" fill="#444">€ 6.500</text>
  <line x1="302" y1="655" x2="940" y2="655" stroke="#F0F0F0" stroke-width="1"/>

  <text x="302" y="673" font-size="12" fill="#444">Pago por visita</text>
  <text x="560" y="673" font-size="12" fill="#444">Juan Pérez</text>
  <text x="740" y="673" font-size="12" fill="#444">€ 1.250</text>
  <text x="870" y="673" font-size="12" fill="#444">€ 1.625</text>
  <line x1="302" y1="683" x2="940" y2="683" stroke="#F0F0F0" stroke-width="1"/>

  <text x="302" y="701" font-size="12" fill="#444">Pago por visita</text>
  <text x="560" y="701" font-size="12" fill="#444">Marta López</text>
  <text x="740" y="701" font-size="12" fill="#444">€ 980</text>
  <text x="870" y="701" font-size="12" fill="#444">€ 1.274</text>
  <line x1="302" y1="711" x2="940" y2="711" stroke="#F0F0F0" stroke-width="1"/>

  <text x="302" y="729" font-size="12" fill="#444">Nota de gastos facturación</text>
  <text x="560" y="729" font-size="12" fill="#888">—</text>
  <text x="740" y="729" font-size="12" fill="#444">€ 420</text>
  <text x="870" y="729" font-size="12" fill="#444">€ 546</text>

  <!-- Comment area -->
  <rect x="302" y="750" width="640" height="40" rx="6" fill="#F8FAFC" stroke="#D0D0D0" stroke-width="1"/>
  <text x="318" y="775" font-size="12" fill="#BBB">✏️  Añadir comentario antes de aprobar...</text>

  <!-- ─── APPROVED RECORDS TABLE ─── -->
  <rect x="980" y="468" width="400" height="340" rx="12" fill="white" filter="url(#sh)"/>
  <rect x="980" y="468" width="400" height="44" rx="12" fill="#70AD47"/>
  <rect x="980" y="490" width="400" height="22" fill="#70AD47"/>
  <text x="1002" y="495" font-size="14" fill="white" font-weight="700">✅  Registros Aprobados</text>

  <rect x="990" y="520" width="380" height="26" fill="#F8FAFC"/>
  <text x="1002" y="537" font-size="10" fill="#666" font-weight="700">PERÍODO</text>
  <text x="1090" y="537" font-size="10" fill="#666" font-weight="700">PROYECTO</text>
  <text x="1230" y="537" font-size="10" fill="#666" font-weight="700">APROBADO POR</text>

  <text x="1002" y="564" font-size="12" fill="#444">Abril 2026</text>
  <text x="1090" y="564" font-size="12" fill="#1F4E78">Amex Shop Small</text>
  <text x="1230" y="564" font-size="11" fill="#70AD47" font-weight="600">María G. (FICO)</text>
  <line x1="1002" y1="574" x2="1360" y2="574" stroke="#F0F0F0" stroke-width="1"/>

  <text x="1002" y="597" font-size="12" fill="#444">Abril 2026</text>
  <text x="1090" y="597" font-size="12" fill="#1F4E78">Granini GPVs</text>
  <text x="1230" y="597" font-size="11" fill="#70AD47" font-weight="600">Carlos L. (FICO)</text>
  <line x1="1002" y1="607" x2="1360" y2="607" stroke="#F0F0F0" stroke-width="1"/>

  <text x="1002" y="630" font-size="12" fill="#444">Marzo 2026</text>
  <text x="1090" y="630" font-size="12" fill="#1F4E78">Amex Shop Small</text>
  <text x="1230" y="630" font-size="11" fill="#70AD47" font-weight="600">María G. (FICO)</text>
  <line x1="1002" y1="640" x2="1360" y2="640" stroke="#F0F0F0" stroke-width="1"/>

  <text x="1002" y="663" font-size="12" fill="#444">Marzo 2026</text>
  <text x="1090" y="663" font-size="12" fill="#1F4E78">Granini GPVs</text>
  <text x="1230" y="663" font-size="11" fill="#70AD47" font-weight="600">Carlos L. (FICO)</text>

  <!-- Workflow diagram -->
  <rect x="990" y="700" width="380" height="90" rx="8" fill="#F8FAFC"/>
  <text x="1002" y="720" font-size="11" fill="#888" font-weight="700">FLUJO DE APROBACIÓN</text>

  <!-- Steps -->
  <circle cx="1020" cy="750" r="14" fill="#70AD47"/>
  <text x="1020" y="755" font-size="9" fill="white" text-anchor="middle" font-weight="700">OK</text>
  <text x="1020" y="775" font-size="9" fill="#444" text-anchor="middle">Cálculo</text>

  <line x1="1034" y1="750" x2="1074" y2="750" stroke="#D0D0D0" stroke-width="1.5" stroke-dasharray="3,2"/>

  <circle cx="1088" cy="750" r="14" fill="#70AD47"/>
  <text x="1088" y="755" font-size="9" fill="white" text-anchor="middle" font-weight="700">OK</text>
  <text x="1088" y="775" font-size="9" fill="#444" text-anchor="middle">Revisión</text>

  <line x1="1102" y1="750" x2="1142" y2="750" stroke="#D0D0D0" stroke-width="1.5" stroke-dasharray="3,2"/>

  <circle cx="1156" cy="750" r="14" fill="#FFC107"/>
  <text x="1156" y="755" font-size="9" fill="white" text-anchor="middle" font-weight="700">⟳</text>
  <text x="1156" y="775" font-size="9" fill="#E65100" text-anchor="middle" font-weight="600">FICO</text>

  <line x1="1170" y1="750" x2="1210" y2="750" stroke="#D0D0D0" stroke-width="1.5" stroke-dasharray="3,2"/>

  <circle cx="1224" cy="750" r="14" fill="#D0D0D0"/>
  <text x="1224" y="755" font-size="9" fill="#888" text-anchor="middle">—</text>
  <text x="1224" y="775" font-size="9" fill="#888" text-anchor="middle">Dirección</text>

  <line x1="1238" y1="750" x2="1278" y2="750" stroke="#D0D0D0" stroke-width="1.5" stroke-dasharray="3,2"/>

  <circle cx="1292" cy="750" r="14" fill="#D0D0D0"/>
  <text x="1292" y="755" font-size="9" fill="#888" text-anchor="middle">—</text>
  <text x="1292" y="775" font-size="9" fill="#888" text-anchor="middle">Cierre</text>

  <!-- Bottom action buttons -->
  <rect x="302" y="810" width="300" height="40" rx="8" fill="#70AD47" filter="url(#sh)"/>
  <text x="452" y="836" font-size="14" fill="white" text-anchor="middle" font-weight="700">✅  Aprobar Seleccionados (1)</text>

  <rect x="620" y="810" width="200" height="40" rx="8" fill="white" stroke="#D32F2F" stroke-width="1.5" filter="url(#sh)"/>
  <text x="720" y="836" font-size="14" fill="#D32F2F" text-anchor="middle" font-weight="700">✗  Rechazar</text>

  <rect x="838" y="810" width="140" height="40" rx="8" fill="#F0F4F8" stroke="#D0D0D0" stroke-width="1"/>
  <text x="908" y="836" font-size="13" fill="#666" text-anchor="middle">Cancelar</text>
</svg>
