<svg width="1440" height="900" viewBox="0 0 1440 900" xmlns="http://www.w3.org/2000/svg" font-family="'Segoe UI', system-ui, sans-serif">
  <defs>
    <linearGradient id="sbG" x1="0%" y1="0%" x2="0%" y2="100%">
      <stop offset="0%" stop-color="#1F4E78"/>
      <stop offset="100%" stop-color="#163A52"/>
    </linearGradient>
    <linearGradient id="calcBg" x1="0%" y1="0%" x2="100%" y2="100%">
      <stop offset="0%" stop-color="#163A52"/>
      <stop offset="100%" stop-color="#1F4E78"/>
    </linearGradient>
    <filter id="sh2" x="-5%" y="-5%" width="115%" height="125%">
      <feDropShadow dx="0" dy="2" stdDeviation="4" flood-color="#1F4E78" flood-opacity="0.10"/>
    </filter>
    <filter id="shC" x="-8%" y="-8%" width="120%" height="140%">
      <feDropShadow dx="0" dy="6" stdDeviation="10" flood-color="#1F4E78" flood-opacity="0.18"/>
    </filter>
  </defs>

  <rect width="1440" height="900" fill="#F0F4F8"/>

  <!-- Sidebar -->
  <rect width="260" height="900" fill="url(#sbG)"/>
  <rect x="20" y="20" width="220" height="64" rx="8" fill="rgba(255,255,255,0.08)"/>
  <circle cx="52" cy="52" r="18" fill="rgba(112,173,71,0.9)"/>
  <text x="52" y="58" font-size="16" fill="white" text-anchor="middle" font-weight="700">S</text>
  <text x="80" y="48" font-size="16" fill="white" font-weight="700">SIG</text>
  <text x="80" y="66" font-size="11" fill="rgba(255,255,255,0.6)">Plataforma Integral</text>

  <text x="20" y="112" font-size="10" fill="rgba(255,255,255,0.5)" font-weight="700" letter-spacing="1.5">PRINCIPAL</text>
  <line x1="20" y1="118" x2="240" y2="118" stroke="rgba(255,255,255,0.1)" stroke-width="1"/>
  <text x="52" y="151" font-size="13" fill="rgba(255,255,255,0.7)">📊 Dashboard</text>
  <text x="52" y="185" font-size="13" fill="rgba(255,255,255,0.7)">📁 Clientes</text>
  <text x="52" y="218" font-size="13" fill="rgba(255,255,255,0.7)">🏗️ Proyectos</text>
  <text x="52" y="251" font-size="13" fill="rgba(255,255,255,0.7)">⚡ Acciones</text>
  <rect x="8" y="265" width="244" height="40" rx="6" fill="rgba(255,255,255,0.18)"/>
  <rect x="8" y="265" width="3" height="40" rx="2" fill="#70AD47"/>
  <text x="52" y="290" font-size="13" fill="white" font-weight="600">🧮 Conceptos</text>
  <text x="52" y="323" font-size="13" fill="rgba(255,255,255,0.7)">📅 Periodos</text>
  <text x="52" y="356" font-size="13" fill="rgba(255,255,255,0.7)">✅ Aprobaciones</text>

  <!-- Top bar -->
  <rect x="260" y="0" width="1180" height="60" fill="white" filter="url(#sh2)"/>
  <text x="290" y="38" font-size="20" fill="#1F4E78" font-weight="700">🧮  Conceptos de Cálculo</text>
  <rect x="1200" y="15" width="150" height="32" rx="6" fill="#1F4E78"/>
  <text x="1275" y="36" font-size="12" fill="white" text-anchor="middle" font-weight="600">+ Nuevo Concepto</text>

  <!-- ─── LEFT: CONCEPT LIST ─── -->
  <rect x="280" y="72" width="480" height="56" rx="8" fill="white" filter="url(#sh2)"/>
  <!-- Search bar -->
  <rect x="294" y="84" width="280" height="32" rx="6" fill="#F0F4F8" stroke="#D0D0D0" stroke-width="1"/>
  <text x="314" y="105" font-size="12" fill="#BBB">🔍  Buscar concepto...</text>

  <rect x="590" y="84" width="100" height="32" rx="6" fill="#F0F4F8" stroke="#D0D0D0" stroke-width="1"/>
  <text x="610" y="105" font-size="12" fill="#1F4E78">Tipo ▾</text>

  <rect x="706" y="84" width="46" height="32" rx="6" fill="#F0F4F8" stroke="#D0D0D0" stroke-width="1"/>
  <text x="729" y="105" font-size="12" fill="#1F4E78" text-anchor="middle">▾</text>

  <!-- Concept table -->
  <rect x="280" y="138" width="480" height="620" rx="12" fill="white" filter="url(#sh2)"/>
  <rect x="280" y="138" width="480" height="36" rx="12" fill="#F8FAFC"/>
  <rect x="280" y="156" width="480" height="18" fill="#F8FAFC"/>
  <text x="302" y="162" font-size="11" fill="#666" font-weight="700">ID</text>
  <text x="340" y="162" font-size="11" fill="#666" font-weight="700">CONCEPTO</text>
  <text x="520" y="162" font-size="11" fill="#666" font-weight="700">TIPO</text>
  <text x="600" y="162" font-size="11" fill="#666" font-weight="700">HASTA</text>
  <text x="700" y="162" font-size="11" fill="#666" font-weight="700">ACCIONES</text>

  <!-- Row active/selected -->
  <rect x="280" y="174" width="480" height="48" fill="#E8F4F8"/>
  <rect x="280" y="174" width="4" height="48" fill="#1F4E78"/>
  <text x="302" y="202" font-size="12" fill="#1F4E78" font-weight="600">C143</text>
  <text x="340" y="196" font-size="12" fill="#1F4E78" font-weight="600">Nota de gastos pago</text>
  <text x="340" y="212" font-size="11" fill="#888">Pago — Suma de Gasto</text>
  <rect x="520" y="185" width="50" height="20" rx="10" fill="#E3F2FD"/>
  <text x="545" y="200" font-size="11" fill="#1565C0" text-anchor="middle" font-weight="600">Pago</text>
  <text x="600" y="202" font-size="12" fill="#444">∞</text>
  <text x="700" y="196" font-size="11" fill="#1F4E78">Ver</text>
  <text x="726" y="196" font-size="11" fill="#1F4E78">·</text>
  <text x="736" y="196" font-size="11" fill="#1F4E78">Edit</text>

  <rect x="280" y="222" width="480" height="48" fill="white"/>
  <text x="302" y="250" font-size="12" fill="#444">C78</text>
  <text x="340" y="244" font-size="12" fill="#444">Nota de gastos facturación</text>
  <text x="340" y="260" font-size="11" fill="#888">Factura — Suma de Gasto</text>
  <rect x="520" y="233" width="60" height="20" rx="10" fill="#E8F5E9"/>
  <text x="550" y="248" font-size="11" fill="#2E7D32" text-anchor="middle" font-weight="600">Factura</text>
  <text x="600" y="250" font-size="12" fill="#444">∞</text>
  <text x="700" y="244" font-size="11" fill="#1F4E78">Ver</text><text x="726" y="244" font-size="11" fill="#1F4E78">·</text><text x="736" y="244" font-size="11" fill="#1F4E78">Edit</text>
  <line x1="302" y1="270" x2="742" y2="270" stroke="#F0F4F8" stroke-width="1"/>

  <rect x="280" y="270" width="480" height="48" fill="#FAFAFA"/>
  <text x="302" y="298" font-size="12" fill="#444">C59</text>
  <text x="340" y="292" font-size="12" fill="#444">Pago por visita</text>
  <text x="340" y="308" font-size="11" fill="#888">Pago — Conteo Visita × 18</text>
  <rect x="520" y="281" width="50" height="20" rx="10" fill="#E3F2FD"/>
  <text x="545" y="296" font-size="11" fill="#1565C0" text-anchor="middle" font-weight="600">Pago</text>
  <text x="600" y="298" font-size="12" fill="#444">31/12/26</text>
  <text x="700" y="292" font-size="11" fill="#1F4E78">Ver · Edit</text>
  <line x1="302" y1="318" x2="742" y2="318" stroke="#F0F4F8" stroke-width="1"/>

  <rect x="280" y="318" width="480" height="48" fill="white"/>
  <text x="302" y="346" font-size="12" fill="#444">C91</text>
  <text x="340" y="340" font-size="12" fill="#444">Sueldo Base</text>
  <text x="340" y="356" font-size="11" fill="#888">Pago — Fijo mensual</text>
  <rect x="520" y="329" width="50" height="20" rx="10" fill="#E3F2FD"/>
  <text x="545" y="344" font-size="11" fill="#1565C0" text-anchor="middle" font-weight="600">Pago</text>
  <text x="600" y="346" font-size="12" fill="#444">∞</text>
  <text x="700" y="340" font-size="11" fill="#1F4E78">Ver · Edit</text>
  <line x1="302" y1="366" x2="742" y2="366" stroke="#F0F4F8" stroke-width="1"/>

  <rect x="280" y="366" width="480" height="48" fill="#FAFAFA"/>
  <text x="302" y="394" font-size="12" fill="#444">C104</text>
  <text x="340" y="388" font-size="12" fill="#444">Bonus por Visita</text>
  <text x="340" y="404" font-size="11" fill="#888">Pago — KM × tarifa</text>
  <rect x="520" y="377" width="50" height="20" rx="10" fill="#E3F2FD"/>
  <text x="545" y="392" font-size="11" fill="#1565C0" text-anchor="middle" font-weight="600">Pago</text>
  <text x="600" y="394" font-size="12" fill="#444">31/12/26</text>
  <text x="700" y="388" font-size="11" fill="#1F4E78">Ver · Edit</text>
  <line x1="302" y1="414" x2="742" y2="414" stroke="#F0F4F8" stroke-width="1"/>

  <!-- ─── RIGHT: FORMULA BUILDER ─── -->
  <rect x="780" y="72" width="600" height="686" rx="12" fill="white" filter="url(#sh2)"/>

  <!-- Header -->
  <rect x="780" y="72" width="600" height="52" rx="12" fill="url(#calcBg)"/>
  <rect x="780" y="108" width="600" height="16" fill="#1F4E78"/>
  <text x="802" y="103" font-size="15" fill="white" font-weight="700">🧮  Editor de Fórmula — C143 · Nota de gastos pago</text>

  <!-- Meta fields -->
  <rect x="798" y="138" width="270" height="54" rx="8" fill="#F8FAFC" stroke="#E0E8F0" stroke-width="1"/>
  <text x="814" y="158" font-size="10" fill="#888" font-weight="700">NOMBRE *</text>
  <text x="814" y="178" font-size="13" fill="#1A1A1A" font-weight="500">Nota de gastos pago</text>

  <rect x="1086" y="138" width="130" height="54" rx="8" fill="#F8FAFC" stroke="#E0E8F0" stroke-width="1"/>
  <text x="1102" y="158" font-size="10" fill="#888" font-weight="700">TIPO *</text>
  <rect x="1102" y="165" width="98" height="20" rx="4" fill="#E3F2FD"/>
  <text x="1151" y="180" font-size="12" fill="#1565C0" text-anchor="middle" font-weight="600">Pago ▾</text>

  <rect x="1232" y="138" width="130" height="54" rx="8" fill="#F8FAFC" stroke="#E0E8F0" stroke-width="1"/>
  <text x="1248" y="158" font-size="10" fill="#888" font-weight="700">HASTA</text>
  <text x="1248" y="178" font-size="13" fill="#888">Sin límite ∞</text>

  <!-- Dates -->
  <rect x="798" y="206" width="130" height="40" rx="8" fill="#F8FAFC" stroke="#E0E8F0" stroke-width="1"/>
  <text x="814" y="222" font-size="10" fill="#888" font-weight="700">DESDE *</text>
  <text x="814" y="238" font-size="12" fill="#1A1A1A">01/01/2023</text>

  <rect x="946" y="206" width="130" height="40" rx="8" fill="#F8FAFC" stroke="#E0E8F0" stroke-width="1"/>
  <text x="962" y="222" font-size="10" fill="#888" font-weight="700">HASTA</text>
  <text x="962" y="238" font-size="12" fill="#888">—</text>

  <rect x="1094" y="206" width="268" height="40" rx="8" fill="#F8FAFC" stroke="#E0E8F0" stroke-width="1"/>
  <text x="1110" y="222" font-size="10" fill="#888" font-weight="700">APLICA A</text>
  <text x="1110" y="238" font-size="12" fill="#1F4E78">Amex Shop Small, Granini GPVs +2 ▾</text>

  <!-- Formula Builder -->
  <text x="802" y="272" font-size="13" fill="#1F4E78" font-weight="700">CÁLCULO / FORMULACIÓN</text>
  <line x1="802" y1="280" x2="1360" y2="280" stroke="#E8F4F8" stroke-width="2"/>

  <!-- Formula display row -->
  <rect x="800" y="292" width="562" height="60" rx="10" fill="#F0F4F8" stroke="#1F4E78" stroke-width="1.5"/>

  <!-- Token: Variable -->
  <rect x="816" y="304" width="110" height="36" rx="6" fill="#1F4E78"/>
  <text x="871" y="327" font-size="12" fill="white" text-anchor="middle" font-weight="600">Σ Gasto</text>
  <text x="871" y="316" font-size="9" fill="rgba(255,255,255,0.7)" text-anchor="middle">VARIABLE</text>

  <!-- Operator: × -->
  <circle cx="960" cy="322" r="16" fill="white" stroke="#D0D0D0" stroke-width="1.5"/>
  <text x="960" y="328" font-size="16" fill="#1F4E78" text-anchor="middle" font-weight="700">×</text>

  <!-- Token: Número -->
  <rect x="990" y="304" width="80" height="36" rx="6" fill="#70AD47"/>
  <text x="1030" y="327" font-size="14" fill="white" text-anchor="middle" font-weight="700">1</text>
  <text x="1030" y="316" font-size="9" fill="rgba(255,255,255,0.8)" text-anchor="middle">NÚMERO</text>

  <!-- Add button -->
  <circle cx="1120" cy="322" r="16" fill="white" stroke="#1F4E78" stroke-width="2" stroke-dasharray="3,2"/>
  <text x="1120" y="328" font-size="18" fill="#1F4E78" text-anchor="middle">+</text>

  <!-- Palette -->
  <text x="802" y="380" font-size="12" fill="#888" font-weight="700">PALETA DE ELEMENTOS</text>

  <!-- Variable tokens -->
  <rect x="800" y="392" width="560" height="120" rx="8" fill="#FAFAFA" stroke="#E8EEF5" stroke-width="1"/>

  <text x="816" y="410" font-size="10" fill="#888" font-weight="700">VARIABLES (desde sistemas origen)</text>

  <rect x="816" y="418" width="120" height="28" rx="6" fill="#E3F2FD" stroke="#1565C0" stroke-width="1"/>
  <text x="876" y="437" font-size="11" fill="#1565C0" text-anchor="middle" font-weight="600">Σ Gasto Payhawk</text>

  <rect x="948" y="418" width="110" height="28" rx="6" fill="#E8F5E9" stroke="#2E7D32" stroke-width="1"/>
  <text x="1003" y="437" font-size="11" fill="#2E7D32" text-anchor="middle" font-weight="600">N° Visitas Celero</text>

  <rect x="1070" y="418" width="100" height="28" rx="6" fill="#FFF3E0" stroke="#E65100" stroke-width="1"/>
  <text x="1120" y="437" font-size="11" fill="#E65100" text-anchor="middle" font-weight="600">Hrs Bizneo</text>

  <rect x="1182" y="418" width="100" height="28" rx="6" fill="#F3E5F5" stroke="#7B1FA2" stroke-width="1"/>
  <text x="1232" y="437" font-size="11" fill="#7B1FA2" text-anchor="middle" font-weight="600">Hrs Intratime</text>

  <rect x="1294" y="418" width="60" height="28" rx="6" fill="#E8F4F8" stroke="#1F4E78" stroke-width="1" stroke-dasharray="3,2"/>
  <text x="1324" y="437" font-size="11" fill="#1F4E78" text-anchor="middle">+ Var</text>

  <text x="816" y="464" font-size="10" fill="#888" font-weight="700">OPERACIONES</text>

  <circle cx="836" cy="486" r="16" fill="#1F4E78"/>
  <text x="836" y="492" font-size="14" fill="white" text-anchor="middle" font-weight="700">+</text>

  <circle cx="878" cy="486" r="16" fill="#1F4E78"/>
  <text x="878" y="492" font-size="14" fill="white" text-anchor="middle" font-weight="700">−</text>

  <circle cx="920" cy="486" r="16" fill="#1F4E78"/>
  <text x="920" y="492" font-size="14" fill="white" text-anchor="middle" font-weight="700">×</text>

  <circle cx="962" cy="486" r="16" fill="#1F4E78"/>
  <text x="962" y="492" font-size="14" fill="white" text-anchor="middle" font-weight="700">÷</text>

  <circle cx="1004" cy="486" r="16" fill="#163A52"/>
  <text x="1004" y="492" font-size="11" fill="white" text-anchor="middle" font-weight="700">%</text>

  <rect x="1030" y="472" width="60" height="28" rx="6" fill="#F8FAFC" stroke="#D0D0D0" stroke-width="1"/>
  <text x="1060" y="491" font-size="11" fill="#666" text-anchor="middle">Σ suma</text>

  <rect x="1102" y="472" width="60" height="28" rx="6" fill="#F8FAFC" stroke="#D0D0D0" stroke-width="1"/>
  <text x="1132" y="491" font-size="11" fill="#666" text-anchor="middle">N count</text>

  <rect x="1174" y="472" width="60" height="28" rx="6" fill="#F8FAFC" stroke="#D0D0D0" stroke-width="1"/>
  <text x="1204" y="491" font-size="11" fill="#666" text-anchor="middle">123 num</text>

  <!-- Preview section -->
  <rect x="800" y="530" width="560" height="100" rx="8" fill="#163A52"/>
  <text x="820" y="552" font-size="12" fill="rgba(255,255,255,0.6)" font-weight="700">PREVIEW — CÁLCULO APLICADO (Juan Pérez · Mayo 2026)</text>

  <text x="820" y="578" font-size="20" fill="#70AD47" font-weight="700">€ 1.250</text>
  <text x="820" y="600" font-size="12" fill="rgba(255,255,255,0.7)">Suma de Gasto Payhawk:</text>
  <text x="820" y="617" font-size="12" fill="white">1.250,00 € (registros: 15/01, 22/01, 07/02...)</text>

  <text x="1100" y="578" font-size="11" fill="rgba(255,255,255,0.5)">Origen: Payhawk API</text>
  <text x="1100" y="595" font-size="11" fill="rgba(255,255,255,0.5)">Importado: 31/05/2026 08:00</text>

  <!-- Jerarquía selector -->
  <rect x="800" y="648" width="560" height="60" rx="8" fill="#F8FAFC" stroke="#E0E8F0" stroke-width="1"/>
  <text x="820" y="668" font-size="11" fill="#888" font-weight="700">JERARQUÍA DE APLICACIÓN</text>
  <rect x="820" y="676" width="90" height="22" rx="11" fill="#E8F4F8" stroke="#1F4E78" stroke-width="1"/>
  <text x="865" y="692" font-size="11" fill="#1F4E78" text-anchor="middle" font-weight="600">Global</text>
  <rect x="924" y="676" width="90" height="22" rx="11" fill="white" stroke="#D0D0D0" stroke-width="1"/>
  <text x="969" y="692" font-size="11" fill="#888" text-anchor="middle">Proyecto</text>
  <rect x="1028" y="676" width="80" height="22" rx="11" fill="white" stroke="#D0D0D0" stroke-width="1"/>
  <text x="1068" y="692" font-size="11" fill="#888" text-anchor="middle">Acción</text>
  <rect x="1122" y="676" width="90" height="22" rx="11" fill="white" stroke="#D0D0D0" stroke-width="1"/>
  <text x="1167" y="692" font-size="11" fill="#888" text-anchor="middle">Empleado</text>

  <!-- Save buttons -->
  <rect x="800" y="724" width="150" height="38" rx="8" fill="#1F4E78"/>
  <text x="875" y="748" font-size="13" fill="white" text-anchor="middle" font-weight="600">💾 Guardar</text>

  <rect x="962" y="724" width="120" height="38" rx="8" fill="white" stroke="#D0D0D0" stroke-width="1"/>
  <text x="1022" y="748" font-size="13" fill="#666" text-anchor="middle">Cancelar</text>

  <rect x="1094" y="724" width="120" height="38" rx="8" fill="#F8FAFC" stroke="#1F4E78" stroke-width="1"/>
  <text x="1154" y="748" font-size="13" fill="#1F4E78" text-anchor="middle">📋 Duplicar</text>
</svg>
