<svg width="1440" height="900" viewBox="0 0 1440 900" xmlns="http://www.w3.org/2000/svg" font-family="'Segoe UI', system-ui, sans-serif">
  <defs>
    <linearGradient id="sbGP" x1="0%" y1="0%" x2="0%" y2="100%">
      <stop offset="0%" stop-color="#1F4E78"/>
      <stop offset="100%" stop-color="#163A52"/>
    </linearGradient>
    <filter id="shP" x="-5%" y="-5%" width="115%" height="125%">
      <feDropShadow dx="0" dy="2" stdDeviation="4" flood-color="#1F4E78" flood-opacity="0.10"/>
    </filter>
  </defs>

  <rect width="1440" height="900" fill="#F0F4F8"/>

  <!-- Sidebar -->
  <rect width="260" height="900" fill="url(#sbGP)"/>
  <rect x="20" y="20" width="220" height="64" rx="8" fill="rgba(255,255,255,0.08)"/>
  <circle cx="52" cy="52" r="18" fill="rgba(112,173,71,0.9)"/>
  <text x="52" y="58" font-size="16" fill="white" text-anchor="middle" font-weight="700">S</text>
  <text x="80" y="48" font-size="16" fill="white" font-weight="700">SIG</text>
  <text x="80" y="66" font-size="11" fill="rgba(255,255,255,0.6)">Plataforma Integral</text>

  <text x="20" y="112" font-size="10" fill="rgba(255,255,255,0.5)" font-weight="700" letter-spacing="1.5">PRINCIPAL</text>
  <line x1="20" y1="118" x2="240" y2="118" stroke="rgba(255,255,255,0.1)" stroke-width="1"/>
  <text x="52" y="151" font-size="13" fill="rgba(255,255,255,0.7)">📊 Dashboard</text>
  <text x="52" y="185" font-size="13" fill="rgba(255,255,255,0.7)">📁 Clientes</text>
  <rect x="8" y="199" width="244" height="40" rx="6" fill="rgba(255,255,255,0.18)"/>
  <rect x="8" y="199" width="3" height="40" rx="2" fill="#70AD47"/>
  <text x="52" y="224" font-size="13" fill="white" font-weight="600">🏗️ Proyectos</text>
  <text x="52" y="257" font-size="13" fill="rgba(255,255,255,0.7)">⚡ Acciones</text>
  <text x="52" y="290" font-size="13" fill="rgba(255,255,255,0.7)">🧮 Conceptos</text>
  <text x="52" y="323" font-size="13" fill="rgba(255,255,255,0.7)">📅 Periodos</text>
  <text x="52" y="356" font-size="13" fill="rgba(255,255,255,0.7)">✅ Aprobaciones</text>

  <!-- Top bar -->
  <rect x="260" y="0" width="1180" height="60" fill="white" filter="url(#shP)"/>
  <text x="290" y="38" font-size="20" fill="#1F4E78" font-weight="700">🏗️  Proyectos</text>

  <!-- Breadcrumb -->
  <text x="1040" y="38" font-size="12" fill="#BBB">Inicio</text>
  <text x="1085" y="38" font-size="12" fill="#BBB">›</text>
  <text x="1096" y="38" font-size="12" fill="#1F4E78" font-weight="600">Proyectos</text>

  <!-- Nuevo btn -->
  <rect x="1250" y="15" width="160" height="32" rx="6" fill="#1F4E78"/>
  <text x="1330" y="36" font-size="12" fill="white" text-anchor="middle" font-weight="600">+ Nuevo Proyecto</text>

  <!-- Filters -->
  <rect x="280" y="72" width="1100" height="64" rx="10" fill="white" filter="url(#shP)"/>
  <text x="302" y="95" font-size="11" fill="#888" font-weight="700">BUSCAR</text>
  <rect x="302" y="100" width="240" height="26" rx="6" fill="#F0F4F8" stroke="#D0D0D0" stroke-width="1"/>
  <text x="322" y="118" font-size="12" fill="#BBB">🔍 Buscar proyecto...</text>

  <text x="560" y="95" font-size="11" fill="#888" font-weight="700">CLIENTE</text>
  <rect x="560" y="100" width="160" height="26" rx="6" fill="#F0F4F8" stroke="#D0D0D0" stroke-width="1"/>
  <text x="578" y="118" font-size="12" fill="#1F4E78">Todos ▾</text>

  <text x="738" y="95" font-size="11" fill="#888" font-weight="700">ESTADO</text>
  <rect x="738" y="100" width="130" height="26" rx="6" fill="#F0F4F8" stroke="#D0D0D0" stroke-width="1"/>
  <text x="756" y="118" font-size="12" fill="#1F4E78">Todos ▾</text>

  <text x="886" y="95" font-size="11" fill="#888" font-weight="700">CECO</text>
  <rect x="886" y="100" width="130" height="26" rx="6" fill="#F0F4F8" stroke="#D0D0D0" stroke-width="1"/>
  <text x="904" y="118" font-size="12" fill="#1F4E78">Todos ▾</text>

  <rect x="1060" y="100" width="80" height="26" rx="6" fill="#1F4E78"/>
  <text x="1100" y="118" font-size="12" fill="white" text-anchor="middle" font-weight="600">Filtrar</text>

  <rect x="1152" y="100" width="70" height="26" rx="6" fill="white" stroke="#D0D0D0" stroke-width="1"/>
  <text x="1187" y="118" font-size="12" fill="#888" text-anchor="middle">Limpiar</text>

  <!-- Stats badges -->
  <text x="1280" y="95" font-size="11" fill="#888">Total:</text>
  <rect x="1312" y="86" width="60" height="24" rx="12" fill="#E3F2FD"/>
  <text x="1342" y="103" font-size="12" fill="#1565C0" text-anchor="middle" font-weight="700">24</text>

  <!-- Table -->
  <rect x="280" y="152" width="1100" height="560" rx="12" fill="white" filter="url(#shP)"/>

  <!-- Table header -->
  <rect x="280" y="152" width="1100" height="40" rx="12" fill="#1F4E78"/>
  <rect x="280" y="180" width="1100" height="12" fill="#1F4E78"/>
  <text x="302" y="177" font-size="11" fill="rgba(255,255,255,0.8)" font-weight="700">ID</text>
  <text x="360" y="177" font-size="11" fill="rgba(255,255,255,0.8)" font-weight="700">PROYECTO ▲</text>
  <text x="560" y="177" font-size="11" fill="rgba(255,255,255,0.8)" font-weight="700">CLIENTE</text>
  <text x="730" y="177" font-size="11" fill="rgba(255,255,255,0.8)" font-weight="700">ESTADO</text>
  <text x="840" y="177" font-size="11" fill="rgba(255,255,255,0.8)" font-weight="700">CECO(s)</text>
  <text x="980" y="177" font-size="11" fill="rgba(255,255,255,0.8)" font-weight="700">INTERLOCUTOR</text>
  <text x="1180" y="177" font-size="11" fill="rgba(255,255,255,0.8)" font-weight="700">ACCIONES</text>

  <!-- Row 1 -->
  <rect x="280" y="192" width="1100" height="52" fill="#F0F7FF"/>
  <rect x="280" y="192" width="4" height="52" fill="#1F4E78"/>
  <text x="302" y="214" font-size="12" fill="#1F4E78" font-weight="700">32</text>
  <text x="302" y="230" font-size="10" fill="#888">PRY-001</text>
  <text x="360" y="214" font-size="13" fill="#1F4E78" font-weight="700">Amex Shop Small</text>
  <text x="360" y="230" font-size="11" fill="#888">Sales Training · Silvia Garzón</text>
  <text x="560" y="222" font-size="13" fill="#444">American Express</text>
  <rect x="730" y="208" width="68" height="22" rx="11" fill="#E8F5E9"/>
  <text x="764" y="224" font-size="11" fill="#2E7D32" text-anchor="middle" font-weight="600">ACTIVO</text>
  <text x="840" y="222" font-size="12" fill="#444">035501, 035502</text>
  <text x="980" y="222" font-size="12" fill="#444">Silvia Garzón</text>
  <text x="1180" y="218" font-size="11" fill="#1F4E78">Ver</text>
  <text x="1206" y="218" font-size="11" fill="#999">·</text>
  <text x="1214" y="218" font-size="11" fill="#1F4E78">Editar</text>
  <text x="1262" y="218" font-size="11" fill="#999">·</text>
  <text x="1270" y="218" font-size="11" fill="#D32F2F">Elim.</text>
  <line x1="302" y1="244" x2="1360" y2="244" stroke="#E8F0F8" stroke-width="1"/>

  <!-- Row 2 -->
  <rect x="280" y="244" width="1100" height="52" fill="white"/>
  <text x="302" y="266" font-size="12" fill="#444">18</text>
  <text x="302" y="282" font-size="10" fill="#888">PRY-002</text>
  <text x="360" y="266" font-size="13" fill="#444" font-weight="600">Granini GPVs</text>
  <text x="360" y="282" font-size="11" fill="#888">Sales Force · Tomas Martín</text>
  <text x="560" y="274" font-size="13" fill="#444">Granini</text>
  <rect x="730" y="260" width="68" height="22" rx="11" fill="#E8F5E9"/>
  <text x="764" y="276" font-size="11" fill="#2E7D32" text-anchor="middle" font-weight="600">ACTIVO</text>
  <text x="840" y="274" font-size="12" fill="#444">025888</text>
  <text x="980" y="274" font-size="12" fill="#444">Tomas Martín</text>
  <text x="1180" y="270" font-size="11" fill="#1F4E78">Ver · Editar · </text><text x="1270" y="270" font-size="11" fill="#D32F2F">Elim.</text>
  <line x1="302" y1="296" x2="1360" y2="296" stroke="#F0F4F8" stroke-width="1"/>

  <!-- Row 3 -->
  <rect x="280" y="296" width="1100" height="52" fill="#FAFAFA"/>
  <text x="302" y="318" font-size="12" fill="#444">45</text>
  <text x="302" y="334" font-size="10" fill="#888">PRY-003</text>
  <text x="360" y="318" font-size="13" fill="#444" font-weight="600">Amex New</text>
  <text x="360" y="334" font-size="11" fill="#888">Corporate · Juan Pérez</text>
  <text x="560" y="326" font-size="13" fill="#444">American Express</text>
  <rect x="730" y="312" width="80" height="22" rx="11" fill="#FFF3E0"/>
  <text x="770" y="328" font-size="11" fill="#E65100" text-anchor="middle" font-weight="600">REVISIÓN</text>
  <text x="840" y="326" font-size="12" fill="#444">035501</text>
  <text x="980" y="326" font-size="12" fill="#444">Juan Pérez</text>
  <text x="1180" y="322" font-size="11" fill="#1F4E78">Ver · Editar · </text><text x="1270" y="322" font-size="11" fill="#D32F2F">Elim.</text>
  <line x1="302" y1="348" x2="1360" y2="348" stroke="#F0F4F8" stroke-width="1"/>

  <!-- Row 4 -->
  <rect x="280" y="348" width="1100" height="52" fill="white"/>
  <text x="302" y="370" font-size="12" fill="#444">67</text>
  <text x="302" y="386" font-size="10" fill="#888">PRY-004</text>
  <text x="360" y="370" font-size="13" fill="#444" font-weight="600">Proyecto Alfa</text>
  <text x="360" y="386" font-size="11" fill="#888">Operations · —</text>
  <text x="560" y="378" font-size="13" fill="#888">—</text>
  <rect x="730" y="364" width="72" height="22" rx="11" fill="#FFEBEE"/>
  <text x="766" y="380" font-size="11" fill="#C62828" text-anchor="middle" font-weight="600">INACTIVO</text>
  <text x="840" y="378" font-size="12" fill="#888">—</text>
  <text x="980" y="378" font-size="12" fill="#888">—</text>
  <text x="1180" y="374" font-size="11" fill="#1F4E78">Ver · Editar · </text><text x="1270" y="374" font-size="11" fill="#D32F2F">Elim.</text>
  <line x1="302" y1="400" x2="1360" y2="400" stroke="#F0F4F8" stroke-width="1"/>

  <!-- Pagination -->
  <rect x="280" y="666" width="1100" height="46" rx="0" fill="#F8FAFC"/>
  <text x="302" y="695" font-size="12" fill="#888">Mostrando 1-4 de 24 proyectos</text>
  <rect x="1050" y="676" width="36" height="26" rx="4" fill="white" stroke="#D0D0D0" stroke-width="1"/>
  <text x="1068" y="694" font-size="13" fill="#888" text-anchor="middle">‹</text>
  <rect x="1094" y="676" width="36" height="26" rx="4" fill="#1F4E78"/>
  <text x="1112" y="694" font-size="13" fill="white" text-anchor="middle">1</text>
  <rect x="1138" y="676" width="36" height="26" rx="4" fill="white" stroke="#D0D0D0" stroke-width="1"/>
  <text x="1156" y="694" font-size="13" fill="#444" text-anchor="middle">2</text>
  <rect x="1182" y="676" width="36" height="26" rx="4" fill="white" stroke="#D0D0D0" stroke-width="1"/>
  <text x="1200" y="694" font-size="13" fill="#444" text-anchor="middle">3</text>
  <text x="1228" y="694" font-size="13" fill="#888">...</text>
  <rect x="1250" y="676" width="36" height="26" rx="4" fill="white" stroke="#D0D0D0" stroke-width="1"/>
  <text x="1268" y="694" font-size="13" fill="#444" text-anchor="middle">›</text>

  <!-- ─── DETAIL PANEL (right side overlay) ─── -->
  <rect x="930" y="152" width="450" height="512" rx="12" fill="white" filter="url(#shP)"/>
  <rect x="930" y="152" width="450" height="52" rx="12" fill="#1F4E78"/>
  <rect x="930" y="190" width="450" height="14" fill="#1F4E78"/>
  <text x="950" y="183" font-size="14" fill="white" font-weight="700">📋  Detalle — Amex Shop Small</text>
  <text x="1360" y="183" font-size="18" fill="rgba(255,255,255,0.7)" text-anchor="end">✕</text>

  <text x="950" y="230" font-size="10" fill="#888" font-weight="700">ID PROYECTO</text>
  <text x="950" y="248" font-size="15" fill="#1F4E78" font-weight="700">PRY-001 · 32</text>

  <text x="1150" y="230" font-size="10" fill="#888" font-weight="700">ESTADO</text>
  <rect x="1150" y="236" width="68" height="22" rx="11" fill="#E8F5E9"/>
  <text x="1184" y="252" font-size="11" fill="#2E7D32" text-anchor="middle" font-weight="600">ACTIVO</text>

  <line x1="950" y1="268" x2="1360" y2="268" stroke="#F0F4F8" stroke-width="1"/>

  <text x="950" y="288" font-size="10" fill="#888" font-weight="700">CLIENTE</text>
  <text x="950" y="306" font-size="13" fill="#1A1A1A">American Express</text>

  <text x="1150" y="288" font-size="10" fill="#888" font-weight="700">CECO(s)</text>
  <text x="1150" y="306" font-size="13" fill="#1A1A1A">035501, 035502</text>

  <text x="950" y="330" font-size="10" fill="#888" font-weight="700">INTERLOCUTOR</text>
  <text x="950" y="348" font-size="13" fill="#1A1A1A">Silvia Garzón</text>

  <text x="1150" y="330" font-size="10" fill="#888" font-weight="700">DEPARTAMENTO</text>
  <text x="1150" y="348" font-size="13" fill="#1A1A1A">Sales Training</text>

  <text x="950" y="374" font-size="10" fill="#888" font-weight="700">EMAIL</text>
  <text x="950" y="392" font-size="12" fill="#1F4E78">sgarzon@sigeurope.com</text>

  <text x="1150" y="374" font-size="10" fill="#888" font-weight="700">TELÉFONO</text>
  <text x="1150" y="392" font-size="12" fill="#1A1A1A">+34 612 345 678</text>

  <line x1="950" y1="408" x2="1360" y2="408" stroke="#F0F4F8" stroke-width="1"/>

  <text x="950" y="428" font-size="11" fill="#1F4E78" font-weight="700">USUARIOS ASIGNADOS (2)</text>

  <circle cx="968" cy="455" r="16" fill="#1F4E78"/>
  <text x="968" y="461" font-size="10" fill="white" text-anchor="middle">SG</text>
  <text x="990" y="451" font-size="12" fill="#444">Silvia Garzón</text>
  <text x="990" y="466" font-size="10" fill="#888">Interlocutor</text>

  <circle cx="968" cy="498" r="16" fill="#2E5C8A"/>
  <text x="968" y="504" font-size="10" fill="white" text-anchor="middle">TM</text>
  <text x="990" y="494" font-size="12" fill="#444">Tomas Martín</text>
  <text x="990" y="509" font-size="10" fill="#888">Interlocutor</text>

  <line x1="950" y1="524" x2="1360" y2="524" stroke="#F0F4F8" stroke-width="1"/>

  <text x="950" y="544" font-size="11" fill="#1F4E78" font-weight="700">ACCIONES ASOCIADAS (3)</text>
  <rect x="950" y="554" width="120" height="22" rx="6" fill="#E3F2FD"/>
  <text x="1010" y="570" font-size="11" fill="#1565C0" text-anchor="middle">Amex Shop Small</text>
  <rect x="1082" y="554" width="80" height="22" rx="6" fill="#E3F2FD"/>
  <text x="1122" y="570" font-size="11" fill="#1565C0" text-anchor="middle">Amex New</text>
  <rect x="1174" y="554" width="60" height="22" rx="6" fill="#E8F5E9"/>
  <text x="1204" y="570" font-size="11" fill="#2E7D32" text-anchor="middle">+ 1</text>

  <!-- Detail action buttons -->
  <rect x="950" y="598" width="140" height="38" rx="8" fill="#1F4E78"/>
  <text x="1020" y="622" font-size="13" fill="white" text-anchor="middle" font-weight="600">✏️ Editar</text>
  <rect x="1102" y="598" width="140" height="38" rx="8" fill="white" stroke="#D0D0D0" stroke-width="1"/>
  <text x="1172" y="622" font-size="13" fill="#444" text-anchor="middle">📋 Duplicar</text>
  <rect x="1254" y="598" width="80" height="38" rx="8" fill="#FFEBEE" stroke="#D32F2F" stroke-width="1"/>
  <text x="1294" y="622" font-size="13" fill="#D32F2F" text-anchor="middle">🗑️</text>
</svg>
